<svg width="19" height="19" viewBox="0 0 19 19" fill="none" xmlns="http://www.w3.org/2000/svg">
<g clip-path="url(#clip0_312_760)">
<path d="M9.49968 15.8333C11.1794 15.8333 12.7903 15.166 13.978 13.9783C15.1657 12.7905 15.833 11.1796 15.833 9.49992C15.833 7.82021 15.1657 6.20931 13.978 5.02158C12.7903 3.83385 11.1794 3.16659 9.49968 3.16659C7.81997 3.16659 6.20906 3.83385 5.02133 5.02158C3.8336 6.20931 3.16634 7.82021 3.16634 9.49992C3.16634 11.1796 3.8336 12.7905 5.02133 13.9783C6.20906 15.166 7.81997 15.8333 9.49968 15.8333ZM9.49968 17.4166C5.1273 17.4166 1.58301 13.8723 1.58301 9.49992C1.58301 5.12754 5.1273 1.58325 9.49968 1.58325C13.8721 1.58325 17.4163 5.12754 17.4163 9.49992C17.4163 13.8723 13.8721 17.4166 9.49968 17.4166ZM7.03759 10.4262L5.06001 9.80946C4.63251 9.67884 4.63013 9.38434 5.1558 9.17296L12.8611 6.19629C13.3084 6.01421 13.5617 6.24459 13.4168 6.82171L12.1051 13.0125C12.0132 13.4535 11.748 13.5588 11.3799 13.3553L9.36034 11.8607L8.41905 12.7695C8.32247 12.8629 8.24409 12.9429 8.09526 12.9627C7.94722 12.9833 7.8253 12.9389 7.73584 12.6935L7.04709 10.4206L7.03759 10.4262Z" fill="#474747"/>
</g>
</svg>
